<svg width="430" height="156" viewBox="0 0 430 156" fill="none" xmlns="http://www.w3.org/2000/svg">
<g opacity="0.25">
<path d="M429.5 40C429.5 42.5213 427.806 45.0875 424.319 47.659C420.846 50.2209 415.692 52.713 409.007 55.0989C395.642 59.8685 376.275 64.1724 352.309 67.7899C304.385 75.0237 238.161 79.5 165 79.5C91.8392 79.5 25.6154 75.0237 -22.3087 67.7899C-46.2746 64.1724 -65.6419 59.8685 -79.0069 55.0989C-85.6925 52.713 -90.8463 50.2209 -94.3193 47.659C-97.8055 45.0875 -99.5 42.5213 -99.5 40C-99.5 37.4787 -97.8055 34.9125 -94.3193 32.341C-90.8463 29.7791 -85.6925 27.287 -79.0069 24.9011C-65.6419 20.1315 -46.2746 15.8276 -22.3087 12.2101C25.6154 4.97631 91.8392 0.5 165 0.5C238.161 0.5 304.385 4.97631 352.309 12.2101C376.275 15.8276 395.642 20.1315 409.007 24.9011C415.692 27.287 420.846 29.7791 424.319 32.341C427.806 34.9125 429.5 37.4787 429.5 40Z" stroke="white"/>
<path d="M429.5 59C429.5 61.5213 427.806 64.0875 424.319 66.659C420.846 69.2209 415.692 71.713 409.007 74.0989C395.642 78.8685 376.275 83.1724 352.309 86.7899C304.385 94.0237 238.161 98.5 165 98.5C91.8392 98.5 25.6154 94.0237 -22.3087 86.7899C-46.2746 83.1724 -65.6419 78.8685 -79.0069 74.0989C-85.6925 71.713 -90.8463 69.2209 -94.3193 66.659C-97.8055 64.0875 -99.5 61.5213 -99.5 59C-99.5 56.4787 -97.8055 53.9125 -94.3193 51.341C-90.8463 48.7791 -85.6925 46.287 -79.0069 43.9011C-65.6419 39.1315 -46.2746 34.8276 -22.3087 31.2101C25.6154 23.9763 91.8392 19.5 165 19.5C238.161 19.5 304.385 23.9763 352.309 31.2101C376.275 34.8276 395.642 39.1315 409.007 43.9011C415.692 46.287 420.846 48.7791 424.319 51.341C427.806 53.9125 429.5 56.4787 429.5 59Z" stroke="white"/>
<path d="M429.5 78C429.5 80.5213 427.806 83.0875 424.319 85.659C420.846 88.2209 415.692 90.713 409.007 93.0989C395.642 97.8685 376.275 102.172 352.309 105.79C304.385 113.024 238.161 117.5 165 117.5C91.8392 117.5 25.6154 113.024 -22.3087 105.79C-46.2746 102.172 -65.6419 97.8685 -79.0069 93.0989C-85.6925 90.713 -90.8463 88.2209 -94.3193 85.659C-97.8055 83.0875 -99.5 80.5213 -99.5 78C-99.5 75.4787 -97.8055 72.9125 -94.3193 70.341C-90.8463 67.7791 -85.6925 65.287 -79.0069 62.9011C-65.6419 58.1315 -46.2746 53.8276 -22.3087 50.2101C25.6154 42.9763 91.8392 38.5 165 38.5C238.161 38.5 304.385 42.9763 352.309 50.2101C376.275 53.8276 395.642 58.1315 409.007 62.9011C415.692 65.287 420.846 67.7791 424.319 70.341C427.806 72.9125 429.5 75.4787 429.5 78Z" stroke="white"/>
<path d="M429.5 97C429.5 99.5213 427.806 102.087 424.319 104.659C420.846 107.221 415.692 109.713 409.007 112.099C395.642 116.868 376.275 121.172 352.309 124.79C304.385 132.024 238.161 136.5 165 136.5C91.8392 136.5 25.6154 132.024 -22.3087 124.79C-46.2746 121.172 -65.6419 116.868 -79.0069 112.099C-85.6925 109.713 -90.8463 107.221 -94.3193 104.659C-97.8055 102.087 -99.5 99.5213 -99.5 97C-99.5 94.4787 -97.8055 91.9125 -94.3193 89.341C-90.8463 86.7791 -85.6925 84.287 -79.0069 81.9011C-65.6419 77.1315 -46.2746 72.8276 -22.3087 69.2101C25.6154 61.9763 91.8392 57.5 165 57.5C238.161 57.5 304.385 61.9763 352.309 69.2101C376.275 72.8276 395.642 77.1315 409.007 81.9011C415.692 84.287 420.846 86.7791 424.319 89.341C427.806 91.9125 429.5 94.4787 429.5 97Z" stroke="white"/>
<path d="M429.5 116C429.5 118.521 427.806 121.087 424.319 123.659C420.846 126.221 415.692 128.713 409.007 131.099C395.642 135.868 376.275 140.172 352.309 143.79C304.385 151.024 238.161 155.5 165 155.5C91.8392 155.5 25.6154 151.024 -22.3087 143.79C-46.2746 140.172 -65.6419 135.868 -79.0069 131.099C-85.6925 128.713 -90.8463 126.221 -94.3193 123.659C-97.8055 121.087 -99.5 118.521 -99.5 116C-99.5 113.479 -97.8055 110.913 -94.3193 108.341C-90.8463 105.779 -85.6925 103.287 -79.0069 100.901C-65.6419 96.1315 -46.2746 91.8276 -22.3087 88.2101C25.6154 80.9763 91.8392 76.5 165 76.5C238.161 76.5 304.385 80.9763 352.309 88.2101C376.275 91.8276 395.642 96.1315 409.007 100.901C415.692 103.287 420.846 105.779 424.319 108.341C427.806 110.913 429.5 113.479 429.5 116Z" stroke="white"/>
</g>
</svg>
