 <svg id="sw-js-blob-svg" viewBox="0 0 100 100" xmlns="http://www.w3.org/2000/svg">                    <defs>                         <linearGradient id="sw-gradient" x1="0" x2="1" y1="1" y2="0">                            <stop id="stop1" stop-color="rgba(248, 117, 55, 1)" offset="0%"></stop>                            <stop id="stop2" stop-color="rgba(251, 168, 31, 1)" offset="100%"></stop>                        </linearGradient>                    </defs>                <path fill="url(#sw-gradient)" d="M13.1,-20.1C17.3,-15,21.2,-11.6,26.5,-6.1C31.8,-0.5,38.5,7.1,37.6,12.9C36.7,18.8,28.2,22.9,20.6,24.5C13.1,26,6.5,25,0.5,24.3C-5.6,23.7,-11.3,23.5,-15.1,20.7C-18.8,18,-20.7,12.7,-22.7,7.2C-24.6,1.8,-26.6,-3.7,-25.3,-8.4C-24,-13,-19.4,-16.6,-14.6,-21.6C-9.8,-26.6,-4.9,-32.9,-0.2,-32.6C4.4,-32.3,8.9,-25.3,13.1,-20.1Z" width="100%" height="100%" transform="translate(50 50)" style="transition: all 0.3s ease 0s;" stroke-width="0"></path>              </svg>