<svg xmlns="http://www.w3.org/2000/svg" xmlns:xlink="http://www.w3.org/1999/xlink" viewBox="0 0 647.14 401.06"><defs><style>.cls-1{isolation:isolate;}.cls-2{fill:url(#linear-gradient);}.cls-3{fill:url(#linear-gradient-2);}.cls-4{fill:#d3daed;}.cls-5{fill:url(#linear-gradient-3);}.cls-6{fill:#f7f5f7;}.cls-7{fill:#2c323c;opacity:0.95;}.cls-8{fill:#21252b;}.cls-9{fill:#48486a;}.cls-10{fill:#010144;opacity:0.9;}.cls-11,.cls-12,.cls-13,.cls-14,.cls-15,.cls-16,.cls-17{fill:none;stroke-linecap:round;stroke-miterlimit:10;}.cls-11{stroke:#c775df;}.cls-11,.cls-12,.cls-13,.cls-14,.cls-15,.cls-17{stroke-width:2.76px;}.cls-12{stroke:#5daef2;}.cls-13{stroke:#97c475;}.cls-14{stroke:#fff;}.cls-15{stroke:#e26b73;}.cls-16{stroke:#e6c176;stroke-width:2.76px;}.cls-17{stroke:#ff2aff;}.cls-18,.cls-22{fill:#fff;}.cls-19{opacity:0.2;mix-blend-mode:multiply;}.cls-20{fill:url(#linear-gradient-4);}.cls-21{fill:#f1f2f2;}.cls-22{font-size:22.44px;font-family:Gotham-Medium, Gotham;font-weight:500;letter-spacing:-0.01em;}.cls-23{letter-spacing:0em;}.cls-24{letter-spacing:-0.02em;}.cls-25{letter-spacing:0em;}.cls-26{fill:url(#linear-gradient-5);}</style><linearGradient id="linear-gradient" x1="-72.25" y1="-53.02" x2="807.06" y2="512.54" gradientUnits="userSpaceOnUse"><stop offset="0" stop-color="#d3daed"/><stop offset="0.03" stop-color="#cfd6eb"/><stop offset="0.28" stop-color="#b1bce1"/><stop offset="0.49" stop-color="#9fadda"/><stop offset="0.65" stop-color="#99a7d8"/></linearGradient><linearGradient id="linear-gradient-2" x1="-72.25" y1="-53.02" x2="807.06" y2="512.54" gradientUnits="userSpaceOnUse"><stop offset="0" stop-color="#d3daed"/><stop offset="0.66" stop-color="#aeb9e0"/><stop offset="1" stop-color="#99a7d8"/></linearGradient><linearGradient id="linear-gradient-3" x1="296.44" y1="333.37" x2="296.44" y2="360.19" gradientUnits="userSpaceOnUse"><stop offset="0" stop-color="#99a7d8"/><stop offset="1" stop-color="#d3daed"/></linearGradient><linearGradient id="linear-gradient-4" x1="443.81" y1="297.43" x2="647.14" y2="297.43" gradientUnits="userSpaceOnUse"><stop offset="0" stop-color="#4b4b71"/><stop offset="1" stop-color="#5c629e"/></linearGradient><linearGradient id="linear-gradient-5" x1="0" y1="66.78" x2="117.27" y2="66.78" xlink:href="#linear-gradient-4"/></defs><title>React js development</title><g class="cls-1"><g id="Layer_2" data-name="Layer 2"><g id="Layer_1-2" data-name="Layer 1"><rect class="cls-2" x="61.15" y="30.95" width="466" height="303.4" rx="14.44"/><rect class="cls-3" x="61.15" y="30.95" width="466" height="303.4" rx="14.44"/><path class="cls-4" d="M393.08,395.76c-.21-1.16-1.24-.87-1.93-1a55.83,55.83,0,0,1-22.52-9.3,30.36,30.36,0,0,1-11.19-14c-1.48-3.7-2.75-7.47-3.9-11.27H239.34c-1.15,3.81-2.44,7.58-3.94,11.28A28.68,28.68,0,0,1,227,383.33a53.9,53.9,0,0,1-25.39,11.42,2.47,2.47,0,0,0-1.82.78c0,1.6,0,3.2,0,4.79,0,.61.14.75.74.74,3.84,0,7.68,0,11.52,0a3.19,3.19,0,0,1,1.53-.12H380.15a2.47,2.47,0,0,1,1.29.12H393A46.71,46.71,0,0,0,393.08,395.76Z"/><path class="cls-5" d="M351.34,352.42c-1.48-5.69-2.72-11.43-3.86-17.19-.14-.74-.24-1.52-1.08-1.86H246.32a2.76,2.76,0,0,0-.9,1.64c-.75,3.68-1.48,7.36-2.34,11-1.12,4.77-2.33,9.5-3.74,14.17h114.2Q352.36,356.34,351.34,352.42Z"/><rect class="cls-6" x="87.15" y="58.45" width="414" height="224"/><rect class="cls-7" x="103.15" y="70.35" width="382" height="200"/><rect class="cls-8" x="103.15" y="70.35" width="89" height="200"/><rect class="cls-9" x="103.15" y="70.35" width="382" height="20.59"/><circle class="cls-10" cx="294.15" cy="305.93" r="9"/><line class="cls-11" x1="227.96" y1="109.35" x2="264.83" y2="109.35"/><line class="cls-12" x1="275" y1="109.35" x2="306.78" y2="109.35"/><line class="cls-13" x1="314.83" y1="109.35" x2="336.01" y2="109.35"/><line class="cls-14" x1="204.65" y1="109.35" x2="213.98" y2="109.35"/><line class="cls-11" x1="227.96" y1="119.35" x2="247.88" y2="119.35"/><line class="cls-14" x1="204.65" y1="119.35" x2="213.98" y2="119.35"/><line class="cls-11" x1="227.96" y1="129.35" x2="239.4" y2="129.35"/><line class="cls-14" x1="204.65" y1="129.35" x2="213.98" y2="129.35"/><line class="cls-11" x1="244.91" y1="139.35" x2="267.37" y2="139.35"/><line class="cls-15" x1="276.27" y1="139.35" x2="312.71" y2="139.35"/><line class="cls-14" x1="221.6" y1="139.35" x2="230.93" y2="139.35"/><line class="cls-11" x1="244.91" y1="149.35" x2="262.71" y2="149.35"/><line class="cls-15" x1="270.33" y1="149.35" x2="314.4" y2="149.35"/><line class="cls-15" x1="323.3" y1="149.35" x2="346.61" y2="149.35"/><line class="cls-14" x1="221.6" y1="149.35" x2="230.93" y2="149.35"/><line class="cls-13" x1="244.91" y1="159.35" x2="285.87" y2="159.35"/><line class="cls-15" x1="291.95" y1="159.35" x2="324.57" y2="159.35"/><line class="cls-15" x1="331.78" y1="159.35" x2="362.15" y2="159.35"/><line class="cls-14" x1="221.6" y1="159.35" x2="230.93" y2="159.35"/><line class="cls-16" x1="261.86" y1="169.35" x2="287" y2="169.35"/><line class="cls-16" x1="294.63" y1="169.35" x2="340.68" y2="169.35"/><line class="cls-16" x1="348.73" y1="169.35" x2="362.43" y2="169.35"/><line class="cls-14" x1="238.55" y1="169.35" x2="247.88" y2="169.35"/><line class="cls-13" x1="261.86" y1="179.35" x2="302.82" y2="179.35"/><line class="cls-13" x1="308.9" y1="179.35" x2="331.92" y2="179.35"/><line class="cls-11" x1="337.57" y1="179.35" x2="375.14" y2="179.35"/><line class="cls-14" x1="238.55" y1="179.35" x2="247.88" y2="179.35"/><line class="cls-17" x1="261.86" y1="189.35" x2="314.4" y2="189.35"/><line class="cls-14" x1="322.6" y1="189.35" x2="340.68" y2="189.35"/><line class="cls-13" x1="348.73" y1="189.35" x2="362.15" y2="189.35"/><line class="cls-14" x1="238.55" y1="189.35" x2="247.88" y2="189.35"/><line class="cls-17" x1="261.86" y1="199.35" x2="288.41" y2="199.35"/><line class="cls-13" x1="296.32" y1="199.35" x2="340.68" y2="199.35"/><line class="cls-12" x1="348.73" y1="199.35" x2="363.56" y2="199.35"/><line class="cls-14" x1="238.55" y1="199.35" x2="247.88" y2="199.35"/><line class="cls-17" x1="278.81" y1="209.35" x2="303.81" y2="209.35"/><line class="cls-12" x1="311.44" y1="209.35" x2="362.71" y2="209.35"/><line class="cls-14" x1="255.5" y1="209.35" x2="264.83" y2="209.35"/><line class="cls-14" x1="255.5" y1="219.35" x2="264.83" y2="219.35"/><line class="cls-14" x1="255.5" y1="229.35" x2="264.83" y2="229.35"/><line class="cls-14" x1="255.5" y1="239.35" x2="264.83" y2="239.35"/><line class="cls-13" x1="278.81" y1="249.35" x2="306.78" y2="249.35"/><line class="cls-13" x1="315.25" y1="249.35" x2="357.63" y2="249.35"/><line class="cls-14" x1="255.5" y1="249.35" x2="264.83" y2="249.35"/><line class="cls-15" x1="278.81" y1="259.35" x2="315.67" y2="259.35"/><line class="cls-14" x1="255.5" y1="259.35" x2="264.83" y2="259.35"/><circle class="cls-18" cx="115.38" cy="80.85" r="2.93"/><circle class="cls-18" cx="124.77" cy="80.85" r="2.93"/><path class="cls-18" d="M137.09,80.85a2.94,2.94,0,1,1-2.94-2.94A2.94,2.94,0,0,1,137.09,80.85Z"/><line class="cls-14" x1="124.65" y1="109.35" x2="161.82" y2="109.35"/><line class="cls-14" x1="124.65" y1="121.64" x2="161.82" y2="121.64"/><line class="cls-14" x1="124.65" y1="133.93" x2="161.82" y2="133.93"/><line class="cls-14" x1="136.01" y1="146.22" x2="161.82" y2="146.22"/><line class="cls-14" x1="136.01" y1="158.51" x2="161.82" y2="158.51"/><line class="cls-14" x1="136.01" y1="170.81" x2="161.82" y2="170.81"/><line class="cls-14" x1="136.01" y1="183.1" x2="161.82" y2="183.1"/><line class="cls-14" x1="124.65" y1="195.39" x2="161.82" y2="195.39"/><line class="cls-14" x1="124.65" y1="207.68" x2="161.82" y2="207.68"/><line class="cls-14" x1="124.65" y1="219.97" x2="161.82" y2="219.97"/><line class="cls-14" x1="124.65" y1="232.27" x2="161.82" y2="232.27"/><path class="cls-19" d="M527.15,319.91v-105H447c-6.49,0-10.93,3.69-12.51,9.28-.05.14-.09.28-.13.42l0,.13a13.25,13.25,0,0,0-.5,3.59v106h78.9A14.44,14.44,0,0,0,527.15,319.91Z"/><rect class="cls-20" x="443.81" y="224.93" width="203.33" height="145" rx="13.41"/><path class="cls-21" d="M443.81,248.36v-9.29c0-8.23,4.94-14.14,13.17-14.14H635.09c8.23,0,12,5.19,12,13.42v10Z"/><circle class="cls-9" cx="457.97" cy="237.62" r="2.78"/><circle class="cls-9" cx="466.86" cy="237.62" r="2.78"/><path class="cls-9" d="M478.53,237.62a2.78,2.78,0,1,1-2.78-2.78A2.78,2.78,0,0,1,478.53,237.62Z"/><text class="cls-22" transform="translate(465.76 297.42)">c<tspan class="cls-23" x="12.48" y="0">omponent</tspan><tspan class="cls-24"><tspan x="0" y="26.93">W</tspan><tspan class="cls-25" x="24.71" y="26.93">illMount () {</tspan></tspan></text><path class="cls-19" d="M71.64,138.76l52.63-30.39a6,6,0,0,0,3-5.2V42.39a6,6,0,0,0-3-5.2L113.45,31H75.59A14.44,14.44,0,0,0,61.15,45.38v90.79l4.49,2.59A6,6,0,0,0,71.64,138.76Z"/><path class="cls-26" d="M117.27,97.17V36.39a6,6,0,0,0-3-5.2L61.64.8a6,6,0,0,0-6,0L3,31.19a6,6,0,0,0-3,5.2V97.17a6,6,0,0,0,3,5.2l52.64,30.39a6,6,0,0,0,6,0l52.63-30.39A6,6,0,0,0,117.27,97.17Z"/><path class="cls-18" d="M89.53,60.52a26.28,26.28,0,0,0-9.82-4.92c-.86-.26-1.06-.61-.86-1.52a30.25,30.25,0,0,0,.91-7.64,12.82,12.82,0,0,0-.26-3.33c-.86-5.54-5.19-8.17-10.49-6.35a26.54,26.54,0,0,0-9.42,6.12c-.66.61-1.06.76-1.82.06-2.84-2.63-5.87-5-9.63-6.22-3-.93-5.85-.85-8.18,1.59a8.17,8.17,0,0,0-2,4.08,26.81,26.81,0,0,0,.35,11.1c.42,1.94.73,1.57-1.3,2.26A29.18,29.18,0,0,0,28.43,60c-2,1.55-3.7,3.39-4,6.06-.35,3.1,1.28,5.3,3.51,7.16A28.66,28.66,0,0,0,37.81,78c.75.24.87.52.68,1.23a29.18,29.18,0,0,0-.86,10.11,9,9,0,0,0,3,6.47c2.46,2,5.24,1.81,8,.79a26.52,26.52,0,0,0,9.15-6.1c.59-.57.93-.64,1.6,0a28.27,28.27,0,0,0,9.38,6.2c5.14,1.88,9.28-.32,10.52-5.56.92-3.87.39-7.67-.41-11.45-.23-1.08-.08-1.5,1-1.83a26.71,26.71,0,0,0,8.92-4.3c1.79-1.39,3.38-3,3.88-5.31C93.41,65,91.89,62.53,89.53,60.52ZM61.16,45.43a25.43,25.43,0,0,1,8.35-5.74,8,8,0,0,1,3-.51A3.46,3.46,0,0,1,75.7,41a10.58,10.58,0,0,1,1.1,5.77A27.78,27.78,0,0,1,76,53.47c-.13.67-.29,1.09-1.21.85a44.19,44.19,0,0,0-7.23-1.12A2,2,0,0,1,66,52.34a49.9,49.9,0,0,0-4.78-5.88C60.85,46.11,60.74,45.82,61.16,45.43Zm-12.8,11h0l-3.82,6.74a33.91,33.91,0,0,1-2-5.47c-.16-.54.24-.5.56-.56a21.77,21.77,0,0,1,5.27-.75Zm.24,20.88c-1.93-.34-3.66-.66-5.41-.94-.64-.11-.85-.35-.62-1a47.36,47.36,0,0,1,1.94-5.08C45.89,72.71,47.2,74.94,48.6,77.35Zm-2.18-9.93a1.36,1.36,0,0,1,0-1.38,92.64,92.64,0,0,1,5.48-9.46,1.46,1.46,0,0,1,1.21-.71c1.86-.17,3.73-.18,5.59-.2s3.65,0,5.47.2a1.47,1.47,0,0,1,1.21.7,88.89,88.89,0,0,1,5.42,9.36,1.76,1.76,0,0,1,0,1.76,93.43,93.43,0,0,1-5.23,9,2,2,0,0,1-1.7,1,59.53,59.53,0,0,1-10.68,0A1.34,1.34,0,0,1,52,77.11,78.31,78.31,0,0,1,46.42,67.42Zm26.33,2.92a41.33,41.33,0,0,1,2,5.16c.17.52-.09.79-.58.88a36.49,36.49,0,0,1-5.37.82Zm0-7.13-4-6.89a41,41,0,0,1,5.24.79c.58.12.94.32.69,1A47.84,47.84,0,0,1,72.75,63.21ZM58.2,48.45c.31-.37.63-.34.93,0,1,1.19,1.95,2.36,2.91,3.55.24.31.52.72-.21.72-2.3,0-4.59,0-7.1,0A39.34,39.34,0,0,1,58.2,48.45ZM40.57,44.24a7.07,7.07,0,0,1,1.6-4,3.22,3.22,0,0,1,2.49-1.12,11.87,11.87,0,0,1,6.62,2.34A34,34,0,0,1,56,45.3c.36.35.54.59.08,1.08a52.42,52.42,0,0,0-4.82,6,1.88,1.88,0,0,1-1.45.83,52.24,52.24,0,0,0-7.47,1.15c-.5.12-.88.14-1-.52C40.78,50.66,40.06,47.5,40.57,44.24Zm-.82,30.43c-.11.38-.18.87-.8.66-3.7-1.26-7.41-2.49-10.21-5.42a4.18,4.18,0,0,1,0-6.29c2.76-2.91,6.39-4.19,10.09-5.34l.25-.07c.47-.07.51.31.6.61a62.47,62.47,0,0,0,2.86,7.28,1.43,1.43,0,0,1,0,1.29A63.06,63.06,0,0,0,39.75,74.67ZM55.93,88.35a31.55,31.55,0,0,1-6.84,4.93,9.44,9.44,0,0,1-4,1.13A3.78,3.78,0,0,1,41.34,92a13.14,13.14,0,0,1-1-4.85,48.18,48.18,0,0,1,1-7.5c.11-.62.54-.58.94-.48a56.38,56.38,0,0,0,8,1.21,1.12,1.12,0,0,1,.87.59,56.77,56.77,0,0,0,4.67,5.83C56.25,87.28,56.65,87.73,55.93,88.35ZM59,85.17c-.31.36-.59.22-.83-.06-1-1.23-2.08-2.47-3.1-3.72-.28-.35-.37-.69.29-.69h7.21A34.29,34.29,0,0,1,59,85.17Zm17.47,5.41c-.69,3.08-2.88,4.41-5.93,3.6a18.77,18.77,0,0,1-6.89-3.86c-.81-.65-1.56-1.38-2.35-2-.47-.39-.57-.7-.09-1.21A55.18,55.18,0,0,0,66.14,81c.71-1,1.84-.66,2.74-.77a52.71,52.71,0,0,0,5.75-1c.88-.21,1.19.08,1.36.88a28.77,28.77,0,0,1,.82,6.21A18.79,18.79,0,0,1,76.49,90.58ZM88,70.48c-2.76,2.46-6.17,3.66-9.6,4.84a.53.53,0,0,1-.77-.36,73.78,73.78,0,0,0-3.06-7.88.93.93,0,0,1,.07-.84A70,70,0,0,0,77.51,59c.18-.51.32-.9,1-.67A28.25,28.25,0,0,1,87,62.2c1.53,1.14,2.82,2.47,3,4.5A5.67,5.67,0,0,1,88,70.48Z"/><path class="cls-18" d="M58.6,72.9a6.14,6.14,0,1,0,.09-12.27A6.14,6.14,0,0,0,58.6,72.9Z"/></g></g></g></svg>